<?xml version="1.0" encoding="utf-8"?>
<!-- Generator: Adobe Illustrator 22.1.0, SVG Export Plug-In . SVG Version: 6.00 Build 0)  -->
<svg version="1.1" id="Capa_1" xmlns="http://www.w3.org/2000/svg" xmlns:xlink="http://www.w3.org/1999/xlink" x="0px" y="0px"
	 viewBox="0 0 647 572" style="enable-background:new 0 0 647 572;" xml:space="preserve">
<style type="text/css">
	.st0{fill:#D4E1F4;}
	.st1{fill:#0635C9;}
	.st2{fill:#0BF3BB;}
</style>
<g>
	<polygon class="st0" points="315.4,74.3 81.3,298.3 129.8,299.9 129.8,561.2 155.4,561.2 155.4,279.6 133.5,279.6 333,88.7 	"/>
	<path class="st1" d="M520.8,474.4c-0.1,28-0.4,55.9-0.1,83.9c0.1,8-3.4,13.2-13,13.2c-126-0.2-251.9-0.2-377.9,0
		c-8.9,0-12.9-5.2-12.7-12.6c0.3-18.3,0.1-36.6,0.1-54.9c0-7.5,3.7-11.7,9.9-11.6c6.1,0.1,9.5,4.2,9.5,11.5
		c0,14.8,0.1,29.6-0.1,44.4c0,3.4,1,4.1,4.2,4c30-0.1,60-0.1,90,0c3.9,0,4.9-0.9,4.9-4.9c5.3-70.7-27.8-185.2,67.7-205.1
		c51.7-10.3,99.9,31,99.4,83.1c0,40.6,0.1,81.2-0.1,121.8c0,3.7,0.6,5,4.8,5c29.8-0.2,59.7-0.2,89.5,0c4.4,0,5-1.4,5-5.3
		c-0.1-79.4-0.1-158.8-0.2-238.2c0-9.6,2.8-12.4,12.5-12.4c11.3,0,22.6,0,33.9,0C475.2,224.8,396.7,155,322,84
		c-2.6-2.5-3.9-2-6.3,0.2c-75.4,70.4-150.6,140.9-226,211.4c11.3,0,21.2,0,31.1,0c13.1,0,15.9,2.8,15.9,15.6c0,33.5,0,66.9,0,100.4
		c0,4.8-1.8,8.2-6.4,10.1c-7.6,3.3-14.4-4.2-13-11.5c0.1-30.1-0.3-60.3,0.1-90.4c0.2-3.7-1.1-4.3-4.4-4.3c-14.7,0.2-29.3,0-44,0.1
		c-5.4,0-9.3-1.9-11.4-7c-2.2-5.2,0.2-8.9,3.8-12.3c75.7-71.2,151.3-142.4,226.9-213.6c5.8-5.5,11.7-10.9,17.8-16
		c8.9-7.3,18.4-6.8,26.8,1c10.4,9.6,20.7,19.3,31,29c71,66.6,142.1,133.3,213.6,199.4c8.7,7.3,3.4,20.5-7.6,19.6
		c-15.2-0.1-30.3,0-45.5-0.1c-2.4,0-3.9-0.1-3.9,3.2C520.7,370.7,520.7,422.6,520.8,474.4z M383.6,484.5
		c-0.5-23.3,1.1-46.6-0.8-69.8c-5-37.6-43.3-63.8-83.5-51.5c-71.2,22.4-38.1,126.9-45.5,184.6c0,3.8,1,4.6,4.7,4.6
		c40.2-0.1,80.3-0.2,120.5,0c4.2,0,4.8-1.4,4.7-5C383.5,526.4,383.6,505.5,383.6,484.5z"/>
	<path class="st2" d="M152.5,150.9c-5,0-7.6-2.4-8.9-8.2c-2.4-10.6-5.2-21.1-10.3-30.9c-8.8-19.2-30.6-22-48.7-27.7
		c-4.6-1.3-7.8-3.7-8-8.8c-0.2-12.6,24-11.4,32.9-16.1c38-10.8,26.5-60,43.8-59.3c15.3-0.6,6.4,49.3,42.3,59.1
		c8.4,4.3,32.3,4.8,32,16c0,5.6-3.7,7.6-8.3,9c-21.5,5.9-44.7,12.6-51.7,36.3C162.8,128.3,163.7,151.8,152.5,150.9z M153,33.6
		c-7.3,20.7-20.3,35.1-42.3,41.7c21.1,6.3,34.3,20.5,41.5,40.8c7.7-20,20.2-34.7,42.8-41.1C172.6,69,160.2,54.3,153,33.6z"/>
	<path class="st2" d="M466.5,139.8c-0.2-11.9,17.6-9.9,25.7-13.6c27.2-5.4,37.2-29.9,42.3-54.3c1.3-10,15-11.1,17-0.3
		c1.8,8,4.3,15.9,7.1,23.7c7.1,23.5,30.5,30.7,52.1,35.5c10.9,1.3,10.3,16.2,0.4,17.5c-24.8,4.7-48.4,14.2-54.5,41.1
		c-3.8,7.9-3.2,27.1-13.8,27.2c-5.2-0.5-7.3-4.1-8.4-9c-4.6-24.9-16-49.4-43.1-54.7C483.3,149.4,467.2,150.9,466.5,139.8z
		 M587.1,139.4c-23.3-6.8-37.2-21.4-44-43.7c-6.9,22.7-21.4,36.9-45,44c23.8,6.8,38,21.5,44.8,44.3
		C549.6,160.8,563.9,146.4,587.1,139.4z"/>
	<path class="st2" d="M-0.4,457.9c0.5-11.3,17.1-9.8,24.9-13.7c40.3-10.8,28.3-54.5,44.7-55.4c4.9,0,7.5,3.2,8.7,8
		c2.6,10.6,6.1,20.9,11.7,30.4c8.2,14.6,25.9,17.8,40.6,22.2c10.8,1.4,11.2,15.8,0.2,17.5c-22.5,5.4-43.6,14.1-48.9,38.8
		c-3.4,7.3-1.6,21.5-12.3,21.7c-4.9,0-7.5-2.4-8.6-7.8c-1.7-8.5-4.6-16.5-8.2-24.3C41.1,465.1-0.4,474.6-0.4,457.9z M69.2,493.6
		c6.3-17.7,18.7-28.7,36.6-35.6c-18.3-6.5-30-18.1-36.7-36c-6.1,18.5-19.3,28.8-36.7,36.5C51.4,464.2,62.7,476.2,69.2,493.6z"/>
	<path class="st2" d="M520.8,474.4c0-4.9,0-9.8,0-14.8c21.8-3.2,39.5-12.3,45.6-34.6c1.6-4.5,2.7-9.2,4.1-13.7
		c1.7-7.7,13.7-7.9,15.3,0.1c4.3,22.8,15.5,42.1,39.9,46c6.1,1.7,15.9,1.6,15.9,10.2c-0.1,4.6-2.6,6.8-6.8,7.9
		c-19.8,4.1-39.1,11-44.2,32.6c-3.2,7.3-2.7,23.4-13,23.2c-5.1-0.3-7-3.9-7.9-8.2c-1.4-6.5-3.4-12.7-5.8-18.9
		C557.4,484.8,538.9,478.7,520.8,474.4z M578,500.8c5.5-17.3,16.6-27.7,34.1-33.3c-16.8-5.4-27.9-15.4-34.1-31.4
		c-6,16.2-17.4,25.5-33.7,31.4C561.9,472.9,571.6,484.4,578,500.8z"/>
</g>
</svg>
