<?xml version="1.0" encoding="utf-8"?>
<!-- Generator: Adobe Illustrator 22.1.0, SVG Export Plug-In . SVG Version: 6.00 Build 0)  -->
<svg version="1.1" id="Capa_1" xmlns="http://www.w3.org/2000/svg" xmlns:xlink="http://www.w3.org/1999/xlink" x="0px" y="0px"
	 viewBox="0 0 608 806" style="enable-background:new 0 0 608 806;" xml:space="preserve">
<style type="text/css">
	.st0{fill:#D4E1F4;}
	.st1{fill:#0635C9;}
	.st2{fill:#1AE5BE;}
</style>
<g>
	<path class="st0" d="M280.3,413.1c0,0-46.9-6.9-93.7,23.4c8.9,8.5,19.7,12.5,26.7,14.2c0.4,0,0.7,0.5,0.6,0.9
		c0,0.4-0.3,0.8-0.8,0.9c-13.1,1.5-39.9,5.3-47.7,41.3c0,0.4-0.7,0.4-0.7,0c-0.9-12.3-4.4-21.3-9.1-28.1
		c-25,26.3-44,63.3-54.5,124.4c-17,98.7-67.6,79.4-88.2,70.2c-2.9-1.3-5.8,1.6-4.7,4.5c5.5,13.6,21.6,33.3,44.4,51.9
		c-5.5-7-9.4-13.6-11.7-19.1c-1.2-2.9,1.8-5.7,4.7-4.5c20.6,9.2,71.2,28.6,88.2-70.2c7.9-45.8,20.5-78.1,36.9-102.4
		c23.6-33.4,57.6-60.6,96.9-72.7c22.3-6.9,43.7-10.4,56.9-12.1l3.4,1.7l39.8-74l-49.5-25.2L280.3,413.1L280.3,413.1L280.3,413.1z"/>
	<path class="st1" d="M158.8,774.2c38.6,5.5,93.3,0,144.3-52.1c-8.9,23.7-28.7,46-58.6,65.5c-3.5,2.3-5.2,6.1-4.4,10
		c1.5,7.7,10.3,8.9,17.3,8.8c18.3,0,45.1-7.9,72.9-21.6c38.2-18.9,72.4-46.3,96.3-77c33.7-43.2,64.5-115.1,22-213.3l36.3-71.5
		c2-4,0.4-9-3.6-11H481l-4.9-48c-2.9-28.5,2.4-57.2,15.4-82.7l112-220.8c9.8-19.3,2.1-43.1-17.2-52.9c-18.6-10-43.7-1.8-52.9,17.3
		L420.3,247.8c-13.6,26.8-34.7,48.7-61,63.1l-36.9,20.3c-3.9-2.3-9.4-0.7-11.4,3.4l-35.5,69.9c-14.7-0.9-53.9-0.3-93.3,25.2
		l8.9,13.8c39.4-25.5,79.4-23.1,86.8-22.3l15.8,8c-29.9,9.4-84,34.2-126.8,97.5c-2.5,3.8-1.5,8.8,2.2,11.4c3.7,2.5,8.8,1.6,11.4-2.2
		c29.7-44,65.5-67.7,90.3-79.8c21.7-10.6,39-14.5,45-15.6l14.4,7.3l-82.5,120c-2.6,3.7-1.6,8.8,2.1,11.4c3.7,2.5,8.8,1.6,11.4-2.1
		L345,455.4l26.1,13.3l-62.4,135.7c-1.9,4.1,0,9,4,10.9s9,0,10.9-4l62.1-135.1l15.2,7.7c2,14.1,6.8,69.1-25.5,151
		c-1.7,4.2,0.4,9,4.6,10.6c4.1,1.7,9-0.4,10.6-4.6c28.3-71.7,29.5-123.5,27.7-148.2l14.9,7.6c16.9,38.7,23,76.1,18.1,111.2
		c-4.3,30.7-17,59.8-37.6,86.3c-22.4,28.8-54.6,54.5-90.6,72.4c-20.1,10-38.1,15.8-51.6,18.4c32.7-26,51-56.3,53.1-88.5
		c0.3-4.4-2.3-8.4-6.4-10c-4-1.5-8.5-0.3-11.1,3c-40.6,51.3-89.7,73.2-145.8,65.2C97,749.1,41.9,702.6,22,673
		c12,3.9,29.1,6.7,45.4-2c20.6-11,34.7-37.6,41.9-79.1c9.3-54.2,26-92.3,52.4-120.1l-11.9-11.3c-28.7,30.3-46.7,71.1-56.6,128.6
		C87,625.3,75.7,648,59.8,656.5c-14.5,7.7-30.8,2.3-43.3-3.4c-4.4-2-9.4-1.1-12.9,2.3c-3.4,3.3-4.5,8.3-2.7,12.8
		c12.6,31,78,94.8,158.2,106.3l0,0L158.8,774.2L158.8,774.2z M367.2,325.2c29.2-16.1,52.7-40.3,67.8-70.1L548.1,32.2
		c5.4-11.1,19.9-15.9,30.8-10.1c11.3,5.7,15.8,19.6,10.1,30.9L476.9,273.8c-14.4,28.4-20.3,60.1-17.1,91.8l3.8,37.4L340,340.1
		L367.2,325.2L367.2,325.2z M321.9,349.3l144.7,73.6L436,483.2l-115.1-58.5l0,0l-29.5-15.1L321.9,349.3L321.9,349.3L321.9,349.3z"/>
	<g>
		<path class="st2" d="M121.1,453.9c17.3,4.6,33.5,12.7,35.5,40.5c0.3,4.3,3.6,7.6,7.9,7.9h0.6c4,0,7.5-2.8,8.3-6.7
			c5.9-27.2,23.1-32.9,40.7-34.9c4.4-0.5,7.9-4.3,8-8.8c0-4.3-2.7-8-6.8-9.1c-12-3.1-32.6-12.1-35.3-38.6c-0.4-4.1-3.7-7.4-7.9-7.7
			s-7.9,2.4-8.9,6.4c-6.5,25.8-28.3,31.8-40.7,33c-4.3,0.4-7.6,3.7-8.1,8c-0.5,4.5,2.4,8.7,6.6,9.8l0,0L121.1,453.9L121.1,453.9z
			 M169.8,427.6c5.1,10.2,12.7,17.2,20.2,22c-8.1,3.4-16.6,9.2-23.2,19.1c-5.1-10.8-12.8-17.7-20.4-22.3
			C154.6,442.7,163.1,436.9,169.8,427.6L169.8,427.6z"/>
		<path class="st2" d="M186.3,315.2c12.5,2.7,24.3,7.9,26.6,27.5c0.5,4.2,4,7.4,8.2,7.5h0.2c4.1,0,7.6-3,8.3-7l0,0
			c3.3-19.5,15.3-24.1,27.8-26.1c4.3-0.7,7.5-4.5,7.4-8.9c0-4.2-3-7.7-7.1-8.6c-10.6-2.2-23.7-8.4-26.4-26.2c-0.6-4.1-4-7.1-8.2-7.2
			h-0.2c-4,0-7.5,2.8-8.3,6.8c-3.5,17.5-17.1,23.2-27.8,24.8c-4.1,0.6-7.2,4-7.5,8.2c-0.3,4.4,2.6,8.3,6.9,9.3l0,0L186.3,315.2z
			 M222.5,295.4c3.5,5.2,7.8,9.1,12.2,12.1c-4.5,2.6-9,6.3-12.8,11.6c-2.7-4.2-6-7.7-10-10.7c-0.7-0.5-1.5-1.1-2.2-1.5
			C214.3,304.2,218.7,300.5,222.5,295.4L222.5,295.4L222.5,295.4z"/>
		<path class="st2" d="M512.7,638c13.8,10.6,25.4,23.9,16.8,49.6c-3.3,9,9.7,15.6,15.1,7.6c15.5-22.3,33-20.9,49.6-16.2
			c4.3,1.2,8.8-0.9,10.7-5c1.8-3.9,0.6-8.4-2.8-11c-9.7-7.2-24.7-23-17.3-47.8c1.2-4-0.6-8.2-4.3-10.1c-3.7-1.9-8.2-0.8-10.7,2.5
			c-15.4,20.7-37.3,18-48.9,14.5c-4.1-1.2-8.4,0.5-10.5,4.3C508.2,630.3,509.2,635.3,512.7,638L512.7,638L512.7,638z M531.1,685.8
			L531.1,685.8z M566.4,632.7c0.9,10.8,4.9,19.8,9.8,26.9c-8.5,0-18.1,2.1-27.6,8.4c-0.6-11.4-4.8-20.3-9.8-27.2
			C547.4,640.5,557.1,638.4,566.4,632.7L566.4,632.7L566.4,632.7z"/>
	</g>
</g>
</svg>
