<?xml version="1.0" encoding="utf-8"?>
<!-- Generator: Adobe Illustrator 22.1.0, SVG Export Plug-In . SVG Version: 6.00 Build 0)  -->
<svg version="1.1" id="Capa_1" xmlns="http://www.w3.org/2000/svg" xmlns:xlink="http://www.w3.org/1999/xlink" x="0px" y="0px"
	 viewBox="0 0 680 551" style="enable-background:new 0 0 680 551;" xml:space="preserve">
<style type="text/css">
	.st0{fill:#0DEFA9;}
	.st1{fill:#0635C9;}
	.st2{fill:none;}
	.st3{fill:#D4E1F4;}
</style>
<g>
	<path class="st0" d="M682.1,92c0-10.7-8.2-20.4-20.5-20.4c-142.2,0.3-284.3,0.3-426.5,0c-4.4,0-8.4,0.7-11.6,2.3
		c-7,3.2-11.1,10-11.1,20.2c0.1,78.1,0.1,156.1-0.1,234.2c0,7,0.9,16.2,3.4,23.6l0,0c1.2,1.3,2.4,2.5,3.5,3.8c0.6,0.7,4.4,4.2,6,5.8
		c0.1,0.1,0.2,0.2,0.3,0.3c4.2,4.2,8.5,8.4,12.7,12.6c2,0,4.1,0.1,6.2,0.1h20.8c130.2,0,260.5,0,390.7,0c14.6,0,26-11.6,26-26.3
		C681.9,262.8,681.8,177.4,682.1,92z M265.2,93.9c126.2,0,251.6-1.4,377.9,0.4c-21.4,16.9-41,34.7-61,52.1
		c-15.7,13.6-31,27.6-46.5,41.4c-24.2,21.5-48.2,43.1-72.6,64.4c-10.3,9-20.2,8.2-30-1.3c-20.7-20.2-42.8-38.8-64.6-57.8
		c-14.4-12.6-28.6-25.2-43-37.8c-20-17.4-39.6-35.2-60.1-51.9c-2.4-1.9-4.7-3.9-7.1-5.8c-1.2-0.9-2.2-2-4-3.8h11V93.9z M244,337.3
		c-2.6,2.3-5.2,4.4-8.3,6.9V107.4c10,9,19.8,17.8,29.5,26.5c9.6,8.6,19,17.1,28.5,25.7c23.7,21.4,47.2,42.8,71.1,64
		c3.5,3.1,3,4.5-0.2,7.2c-23,20.1-45.9,40.3-68.8,60.5c-10.2,9-20.4,18-30.6,27.1C258.1,324.8,251,331.1,244,337.3z M260.9,353
		c1.4-1.3,2.9-2.6,4.3-3.9c8.1-7.3,15.8-14.2,23.5-21.1c15.8-13.9,31.7-27.8,47.5-41.7c16.7-14.7,33.4-29.4,50-44.2
		c2.1-1.9,3.2-1.2,4.9,0.3c9.2,8.2,18.5,16.2,27.7,24.3c18.6,16.5,35.8,17.5,56.2,3.2c11.3-7.9,21.6-17,32.1-26
		c1.6-1.4,2.5-2.2,4.7-0.3c28.9,25.9,58,51.7,87.1,77.5c11.6,10.3,23.2,20.8,35.6,31.8L260.9,353L260.9,353z M660.1,345.4
		c-45.3-40.4-89.6-79.9-134-119.6c45-39.8,89.5-79.1,134.7-119C660.8,186.5,659.2,265.3,660.1,345.4z"/>
	<path class="st1" d="M446,443.4c-17.7-14.7-35.6-29.2-53.3-44c-18.9-15.9-43.4-18.8-64.3-3.8c-7,5-14.6,9.1-21.6,14.2
		c-9.1,6.6-21.8,4.6-29-1.2c-13.5-11-27-22-39.6-34.2c-4.2-4.2-8.5-8.4-12.7-12.6c-0.1-0.1-0.2-0.2-0.3-0.3c-1.6-1.6-5.4-5.1-6-5.8
		c-1.2-1.3-2.4-2.5-3.5-3.8l0,0c-16.6-17.8-32.8-36-47.5-55.3c-17-22.2-31.5-45.8-42-71.8c-5.5-13.5-4.6-32,12.5-42.1
		c7.5-4.5,14.6-9.7,21.4-15.3c17.4-14.3,20.7-31.6,13-50.3c-12.6-30.9-26.3-61.3-39.6-91.9C126.9,9.9,117.4,1.5,105,0
		c-5.6-0.7-11.7,0-18.4,2.1c-7.7,2.4-14.7,6.7-21.8,10.5C42.7,24.5,25.8,41.5,14.3,64C3.5,85.1-0.8,107.5,0.4,131.2
		c0.8,15.3,3.4,30.2,6.8,45c7.2,30.4,19.6,58.9,33.1,86.9c24.6,50.8,57,96.4,94.6,138.3c29.2,32.6,60.5,63.1,95.2,89.9
		c25.9,20,52.9,38.2,83.5,50.6c25.3,10.2,51.2,13.1,77.7,5.6c22.4-6.4,41.4-19.2,59.5-33.3c4.5-3.5,8-7.6,10.6-12.2
		c3.2-5.8,4.9-12.4,4.9-19.8C466.4,465.4,458.1,453.4,446,443.4z M440.8,496c-19.5,15.9-40.4,29.5-65.9,33.9
		c-3.6,0.6-7.3,0.4-10.9,0.6c-19.2,0-36.9-5.6-54-13.7c-30.2-14.3-57.1-33.5-82.5-55c-20.2-17.1-39.2-35.5-57.5-54.6
		c-37.4-38.9-70.5-81-96.7-128.3c-20.5-37-37.5-75.4-46.2-117.1c-3.6-17-6.2-34.1-4.1-51.3c3.6-29.1,15.6-53.8,40.7-70.8
		c8.2-5.6,16.7-10.8,25.6-15.4c10-5.1,17-3.3,22.5,6.4c5.6,9.9,9.2,20.8,13.3,31.4c7.6,19.2,16.8,37.7,24.9,56.7
		c2.8,6.5,6.2,12.9,3.6,20.5c-1.7,4.8-4.3,8.9-8.5,11.9c-8.4,5.9-17,11.6-25.1,17.9c-16.2,12.6-21.8,29.3-17.9,49.2
		c4.1,21.2,14.7,39.6,25.6,57.7c18.8,31.1,42.2,58.7,66.8,85.3c19.7,21.3,41,40.7,63.3,59.1c10.4,8.6,21.8,14.1,35.6,14
		c11.8-0.1,21.4-6,30.8-12.4c5.8-3.9,11.8-7.4,17.4-11.6c10.7-8.1,26.6-5.7,35.6,1.6c19.3,15.7,38.5,31.6,57.6,47.5
		c3.4,2.9,6.6,5.9,8.8,9.6c1.4,2.3,2.4,4.8,3,7.7C448,484.5,446.4,491.4,440.8,496z"/>
	<path class="st2" d="M225.2,361.5c-1.3-1.3-2.6-2.6-3.9-3.9"/>
	<path class="st3" d="M265.2,134v184.5c-7.1,6.3-14.2,12.6-21.2,18.8c-2.6,2.3-5.2,4.4-8.3,7V107.5
		C245.7,116.5,255.5,125.3,265.2,134z"/>
	<path class="st3" d="M440.8,496c-19.5,15.9-40.4,29.5-65.9,33.9c-3.6,0.6-7.3,0.5-10.9,0.6c-19.2,0-36.9-5.6-54-13.7
		c-30.2-14.3-57.1-33.5-82.5-55c-20.2-17.1-39.2-35.5-57.5-54.6c-37.4-38.9-70.5-81-96.7-128.3c-20.5-37-37.5-75.4-46.2-117.1
		c-3.6-17-6.2-34.1-4.1-51.3c3.6-29.1,15.6-53.8,40.7-70.8c8.2-5.6,16.7-10.8,25.6-15.4c10-5.1,17-3.3,22.5,6.4l-3.8,1.2
		c0,0-94.3,37.2-59.6,138.8C76,251.6,85.3,329.8,249.5,451.8c37.3,27.7,117.3,98.7,194.1,17.5c1.4,2.3,2.4,4.8,3,7.7
		C448,484.5,446.4,491.4,440.8,496z"/>
</g>
</svg>
